PathFileType	4	(X/Y/Z)	2014001\dynamic\2014001_C1_02.trc
DataRate	CameraRate	NumFrames	NumMarkers	Units	OrigDataRate	OrigDataStartFrame	OrigNumFrames
100.000000	100.000000	4	52	mm	100.000000	372	426
Frame#	Time	L_IAS			L_IPS			R_IPS			R_IAS			L_FTC			L_FLE			L_FME			L_FAX			L_TTC			L_FAL			L_TAM			L_FCC			L_FM1			L_FM2			L_FM5			R_FTC			R_FLE			R_FME			R_FAX			R_TTC			R_FAL			R_TAM			R_FCC			R_FM1			R_FM2			R_FM5			CV7			TV10			SXS			SJN			L_SIA			L_SRS			L_SAA			L_SAE			L_HLE			L_HME			L_UOA			L_RSP			L_UHE			L_HM2			L_HM5			R_SIA			R_SRS			R_SAA			R_SAE			R_HLE			R_HME			R_UOA			R_RSP			R_UHE			R_HM2			R_HM5			
		X1	Y1	Z1	X2	Y2	Z2	X3	Y3	Z3	X4	Y4	Z4	X5	Y5	Z5	X6	Y6	Z6	X7	Y7	Z7	X8	Y8	Z8	X9	Y9	Z9	X10	Y10	Z10	X11	Y11	Z11	X12	Y12	Z12	X13	Y13	Z13	X14	Y14	Z14	X15	Y15	Z15	X16	Y16	Z16	X17	Y17	Z17	X18	Y18	Z18	X19	Y19	Z19	X20	Y20	Z20	X21	Y21	Z21	X22	Y22	Z22	X23	Y23	Z23	X24	Y24	Z24	X25	Y25	Z25	X26	Y26	Z26	X27	Y27	Z27	X28	Y28	Z28	X29	Y29	Z29	X30	Y30	Z30	X31	Y31	Z31	X32	Y32	Z32	X33	Y33	Z33	X34	Y34	Z34	X35	Y35	Z35	X36	Y36	Z36	X37	Y37	Z37	X38	Y38	Z38	X39	Y39	Z39	X40	Y40	Z40	X41	Y41	Z41	X42	Y42	Z42	X43	Y43	Z43	X44	Y44	Z44	X45	Y45	Z45	X46	Y46	Z46	X47	Y47	Z47	X48	Y48	Z48	X49	Y49	Z49	X50	Y50	Z50	X51	Y51	Z51	X52	Y52	Z52	

373	3.72	399.0915527343752	874.1444702148442	1306.31494140625	332.3226318359376	914.2695312500005	1126.837768554688	242.6533660888673	915.3318481445317	1118.786254882813	159.0679321289063	896.6318969726567	1295.603271484375	448.445251464844	783.1885375976567	1228.901489257813	383.8829956054689	432.1364746093752	1217.6875	268.7965087890626	431.7123107910159	1232.753295898438	383.7849121093751	371.5517883300782	1194.95849609375	329.2205810546876	352.7162170410157	1249.411743164063	313.990447998047	60.30146408081058	1139.362426757813	224.9122009277345	76.14505767822268	1157.79150390625	267.2439575195314	23.35080718994141	1093.055297851563	242.1740875244142	26.1598358154297	1273.94091796875	303.860076904297	38.47520828247072	1283.355102539063	350.2359619140626	24.72020339965822	1227.536010742188	97.47995758056646	801.262084960938	1210.170166015625	93.08197784423831	461.4429321289065	1313.183837890625	209.238739013672	441.1982727050784	1347.7001953125	87.81951904296878	401.9109497070315	1289.455200195313	125.4049911499024	384.7544555664065	1360.288330078125	122.0437545776368	96.76551055908209	1210.679931640625	196.8259124755861	101.974967956543	1264.263916015625	183.7016601562501	52.13773727416995	1176.064331054688	151.1490173339844	45.30857086181642	1358.38134765625	96.77554321289068	58.81256866455081	1344.04931640625	69.60269927978518	45.58449172973634	1286.967407226563	278.9727783203126	1384.852416992188	1154.332763671875	295.2887268066407	1152.173950195313	1087.816162109375	290.7695922851564	1157.430908203125	1325.426025390625	282.8189392089845	1318.545532226563	1279.970336914063	389.7926025390627	1195.057006835938	1091.797973632813	375.6532592773439	1326.327880859375	1112.533935546875	480.6766357421877	1327.490966796875	1195.849609375	462.5647888183596	1336.65576171875	1235.312622070313	540.3697509765627	1049.647216796875	1203.64599609375	467.6110839843752	1019.892517089844	1167.527587890625	517.5725097656252	1015.769470214844	1166.496459960938	475.6360168457034	827.3799438476567	1303.493286132813	547.9487304687502	817.2374877929692	1264.880737304688	475.8492431640627	748.4733886718752	1338.237182617188	545.8364868164065	738.7561645507815	1265.291870117188	177.8076629638672	1190.055419921875	1082.430786132813	194.2140197753907	1313.956176757813	1110.149536132813	90.40095520019534	1302.841918945313	1187.831909179688	101.840316772461	1307.51220703125	1236.60595703125	35.5747528076172	1006.1943359375	1186.81689453125	113.2907867431641	989.7678833007817	1164.195678710938	67.27225494384768	982.7241821289067	1158.071533203125	55.26314544677737	803.7763671875005	1293.703491210938	-1.74048936367035	798.3305664062505	1234.761352539063	35.98626708984376	714.079284667969	1323.493408203125	-0.7229063510894778	718.8333740234377	1227.753540039063	
374	3.73	399.4205627441409	873.814086914063	1308.559814453125	332.3775329589845	913.9518432617192	1129.271484375	242.6963195800782	915.089233398438	1121.425048828125	159.4949188232422	896.650512695313	1298.382690429688	448.5822753906252	782.6897583007817	1230.948364257813	383.7731323242189	431.8148498535159	1219.394653320313	268.732147216797	431.3966369628909	1234.6376953125	383.7040405273439	371.3195800781251	1196.529296875	329.1373901367189	352.2883911132814	1250.87744140625	313.8414001464845	60.30823516845706	1139.487915039063	224.8069915771486	76.17329406738284	1157.941528320313	267.1963195800782	23.39982414245606	1093.062744140625	242.1667022705079	26.17812919616701	1273.9921875	303.8540344238282	38.39939117431642	1283.295288085938	350.1932067871095	24.71703529357912	1227.513305664063	97.53285980224615	801.247680664063	1213.1669921875	93.67149353027347	461.8362426757815	1318.511962890625	209.8896789550782	442.1116333007815	1352.8408203125	88.35916137695315	401.6216125488284	1295.622192382813	126.1197052001954	385.9585266113284	1366.97998046875	121.7806091308594	94.7539978027344	1223.816162109375	196.5457458496095	101.1362457275391	1277.048217773438	183.2994079589844	49.21258926391604	1190.116821289063	150.9349365234376	46.55683517456056	1372.571044921875	96.66429138183599	59.71790695190433	1358.019653320313	69.36515808105472	45.31359100341798	1301.305541992188	278.9456481933595	1384.629516601563	1157.096923828125	295.3420715332032	1151.990234375	1090.454345703125	291.009979248047	1157.061279296875	1327.982421875	282.9302368164064	1318.211059570313	1282.659301757813	389.777038574219	1194.956909179688	1094.221435546875	375.6257934570314	1326.21923828125	1115.137084960938	480.7056884765627	1327.326904296875	1198.33837890625	462.6757812500002	1336.443237304688	1237.862915039063	540.4478759765627	1049.513671875	1205.295288085938	467.7319335937502	1019.974792480469	1168.868774414063	517.7120361328127	1015.878356933594	1167.880493164063	475.9431152343752	826.576049804688	1303.537475585938	548.2342529296877	816.7546997070317	1264.921630859375	476.0460510253909	747.3468017578127	1337.694458007813	546.2219848632815	738.2671508789065	1264.82421875	177.8784637451172	1189.881225585938	1085.030151367188	194.1993865966798	1313.72216796875	1112.94140625	90.46900939941409	1302.498413085938	1190.642822265625	101.8997802734376	1307.090576171875	1239.450805664063	35.7269630432129	1006.053588867188	1188.53271484375	113.4696044921876	989.7395629882817	1165.776489257813	67.44944763183597	982.9746704101567	1159.553100585938	54.62182235717776	802.3255004882817	1292.655151367188	-2.308122634887696	797.836791992188	1233.5361328125	35.12084579467775	712.0926513671877	1320.9013671875	-1.558999419212342	718.4282836914065	1225.33251953125	
375	3.74	399.7580261230471	873.481811523438	1310.848876953125	332.402069091797	913.6233520507817	1131.741455078125	242.7110443115236	914.8314819335942	1124.10546875	159.9082183837891	896.6270141601567	1301.19970703125	448.7016906738284	782.203491210938	1233.060546875	383.6791076660157	431.4939575195315	1221.065063476563	268.677703857422	431.0803527832034	1236.475463867188	383.6291809082032	371.088836669922	1198.051635742188	329.0749511718751	351.8586425781251	1252.305297851563	313.6881713867189	60.3085632324219	1139.606323242188	224.6935424804689	76.1857833862305	1158.095092773438	267.1514282226564	23.45190238952637	1093.07763671875	242.1356506347657	26.16842079162599	1274.000610351563	303.8345642089845	38.31122970581056	1283.228759765625	350.1549377441407	24.70577621459962	1227.4892578125	97.57006072998053	801.1896972656255	1216.217163085938	94.25740814208987	462.1839599609377	1323.747802734375	210.5182037353517	442.9771728515627	1357.880004882813	88.88296508789065	401.3113098144534	1301.736206054688	126.8164443969727	387.1513977050784	1373.567138671875	121.5200195312501	92.85347747802737	1236.964965820313	196.2657928466798	100.4081726074219	1289.909545898438	182.8795928955079	46.45893859863283	1204.203125	150.7407836914063	47.88021850585939	1386.7001953125	96.52717590332037	60.75725936889651	1371.934204101563	69.12903594970706	45.16579055786134	1315.611328125	278.9030761718751	1384.384765625	1159.876098632813	295.3787841796876	1151.786865234375	1093.098022460938	291.221649169922	1156.673828125	1330.560913085938	283.0109863281251	1317.853149414063	1285.364624023438	389.7453308105471	1194.828369140625	1096.677978515625	375.5814819335939	1326.083862304688	1117.764404296875	480.7070617675784	1327.139770507813	1200.854125976563	462.7577819824221	1336.209350585938	1240.44189453125	540.570739746094	1049.39013671875	1207.005615234375	467.9231872558596	1020.050720214844	1170.225463867188	517.9185180664065	1015.993469238282	1169.33203125	476.307800292969	825.7731933593755	1303.603149414063	548.5909423828127	816.2878417968755	1265.007690429688	476.3105468750002	746.249938964844	1337.247802734375	546.698425292969	737.7993774414065	1264.403686523438	177.9475250244141	1189.674194335938	1087.636474609375	194.1779022216798	1313.460815429688	1115.733032226563	90.52153015136722	1302.132568359375	1193.434814453125	101.9280014038087	1306.650512695313	1242.2822265625	35.86357879638673	1005.887817382813	1190.201538085938	113.6347579956055	989.6877441406255	1167.323974609375	67.61293792724612	983.1815795898442	1161.01220703125	54.03741455078128	800.9518432617192	1291.702270507813	-2.824031352996827	797.3659057617192	1232.427001953125	34.32260131835939	710.236999511719	1318.463256835938	-2.314105272293092	718.0615844726565	1223.080444335938	
376	3.75	400.103454589844	873.1481933593755	1313.183349609375	332.3967285156251	913.2829589843755	1134.24609375	242.698211669922	914.5549316406255	1126.824096679688	160.3043670654297	896.561401367188	1304.054931640625	448.8039245605471	781.7397460937505	1235.250366210938	383.6047668457032	431.1765136718752	1222.696411132813	268.6368408203126	430.7602539062502	1238.272827148438	383.560760498047	370.8623962402345	1199.520874023438	329.039520263672	351.4275207519532	1253.695434570313	313.534637451172	60.30500793457034	1139.714965820313	224.5780487060548	76.18386840820315	1158.25146484375	267.1072387695314	23.5095558166504	1093.094482421875	242.0829162597657	26.13607978820802	1273.97021484375	303.8024902343751	38.21370315551759	1283.15966796875	350.1242675781251	24.68645095825197	1227.46484375	97.60059356689459	801.0877075195317	1219.326904296875	94.83968353271487	462.4826354980471	1328.891479492188	211.1255493164064	443.7864990234377	1362.8046875	89.38620758056643	400.9834899902346	1307.805786132813	127.4953765869141	388.3310852050784	1380.043334960938	121.2495040893555	91.07133483886722	1250.119262695313	195.9839019775392	99.78836822509771	1302.85400390625	182.432846069336	43.8848114013672	1218.302978515625	150.5673065185547	49.28208160400393	1400.761596679688	96.36166381835943	61.93753433227542	1385.786254882813	68.89051818847659	45.14702606201173	1329.878784179688	278.8472595214845	1384.117797851563	1162.671752929688	295.3971252441407	1151.5634765625	1095.752075195313	291.4042968750001	1156.269653320313	1333.163940429688	283.0615234375001	1317.469604492188	1288.089233398438	389.6976623535159	1194.671142578125	1099.16943359375	375.5211181640626	1325.921752929688	1120.417236328125	480.6824035644534	1326.9296875	1203.399169921875	462.8116149902346	1335.954223632813	1243.051147460938	540.7347412109377	1049.274291992188	1208.779907226563	468.1805114746096	1020.114013671875	1171.6142578125	518.186950683594	1016.112609863282	1170.855102539063	476.7228088378909	824.9694824218755	1303.699462890625	549.017517089844	815.8364257812505	1265.148559570313	476.6421813964846	745.1817626953127	1336.900268554688	547.2646484375002	737.3516235351565	1264.041259765625	178.0150756835938	1189.434814453125	1090.251953125	194.1509857177736	1313.172729492188	1118.52197265625	90.5585861206055	1301.745239257813	1196.208374023438	101.9255905151368	1306.193115234375	1245.099853515625	35.98673629760744	1005.697082519532	1191.82470703125	113.7891464233399	989.6126098632817	1168.8447265625	67.7653503417969	983.3427734375005	1162.454711914063	53.51076126098636	799.6547851562505	1290.862182617188	-3.283212423324587	796.9116821289067	1231.446411132813	33.5934181213379	708.5110473632815	1316.21337890625	-2.98010802268982	717.7205810546877	1221.021240234375	
